<?xml version="1.0" encoding="UTF-8"?>
<svg id="Layer_2" xmlns="http://www.w3.org/2000/svg" xmlns:xlink="http://www.w3.org/1999/xlink" viewBox="0 0 499.9 500">
  <defs>
    <style>
      .cls-1, .cls-2 {
        fill: #010011;
      }

      .cls-3 {
        stroke-dasharray: 4 4;
      }

      .cls-3, .cls-4, .cls-5, .cls-6 {
        fill: none;
      }

      .cls-3, .cls-5, .cls-7, .cls-6 {
        stroke: #010011;
        stroke-miterlimit: 10;
      }

      .cls-8, .cls-9, .cls-7 {
        fill: #fff;
      }

      .cls-9 {
        fill-rule: evenodd;
      }

      .cls-10 {
        letter-spacing: -.03em;
      }

      .cls-11 {
        letter-spacing: .02em;
      }

      .cls-5 {
        stroke-dasharray: 3.95 3.95;
      }

      .cls-12 {
        letter-spacing: 0em;
      }

      .cls-13 {
        letter-spacing: 0em;
      }

      .cls-14 {
        fill: url(#Nueva_muestra_de_motivo_2);
        opacity: .11;
      }

      .cls-2 {
        font-family: Sigmar, Sigmar;
        font-size: 3.09px;
      }
    </style>
    <pattern id="Nueva_muestra_de_motivo_2" data-name="Nueva muestra de motivo 2" x="0" y="0" width="280.42" height="301.62" patternTransform="translate(-.1)" patternUnits="userSpaceOnUse" viewBox="0 0 280.42 301.62">
      <g>
        <rect class="cls-4" width="280.42" height="301.62"/>
        <g>
          <path class="cls-3" d="M295.21,268.2c-16.5,8.54-29.59,23.55-35.71,41.11-1.66,4.77-2.84,9.81-2.52,14.85.42,6.73,3.44,12.99,6.56,18.96,3.19,6.09,6.71,12.27,12.22,16.38,12.21,9.11,30.54,4.74,41.75-5.58,11.33-10.44,17.25-28.31,9.63-41.71-6.01-10.58-19.39-15.82-31.38-13.77-12,2.04-22.32,10.5-28.36,21.07-3.03,5.3-5.26,11.34-9.99,15.2-2.49,2.03-5.51,3.3-8.48,4.54-5.2,2.17-10.67,4.39-16.28,3.83-9.18-.92-16.07-9.05-19.69-17.54-3.62-8.49-5.02-17.83-8.96-26.17-3.59-7.61-10.26-14.65-18.4-15.74"/>
          <path class="cls-6" d="M184.41,283.51c-.4-.02-.81-.03-1.21-.03"/>
        </g>
        <g>
          <g>
            <g>
              <path class="cls-9" d="M231.82,325.51l13.06-27.11,19.86,5.23c1.01.28,1.5,1.21,1.08,2.07l-11.55,23.98c-.42.86-1.58,1.34-2.59,1.06l-19.86-5.23Z"/>
              <path class="cls-6" d="M231.82,325.51l13.06-27.11,19.86,5.23c1.01.28,1.5,1.21,1.08,2.07l-11.55,23.98c-.42.86-1.58,1.34-2.59,1.06l-19.86-5.23Z"/>
            </g>
            <g>
              <path class="cls-9" d="M231.26,326.54l13.77-28.06,19.4,9.41c.89.44,1.26,1.52.82,2.41l-12.18,24.82c-.44.89-1.52,1.26-2.41.82l-19.4-9.41Z"/>
              <path class="cls-6" d="M231.26,326.54l13.77-28.06,19.4,9.41c.89.44,1.26,1.52.82,2.41l-12.18,24.82c-.44.89-1.52,1.26-2.41.82l-19.4-9.41Z"/>
            </g>
          </g>
          <path class="cls-7" d="M174.63,315.02s2.51-4.11,4.44-6.14l-2.98-.76,4.89-1.88-3.79.04,4.42-3.2,1.57-6.98s-12.01,4.95-8.55,18.92Z"/>
          <g>
            <path class="cls-6" d="M18.07,266.61c-.37.17-.74.34-1.1.51"/>
            <path class="cls-3" d="M14.79,268.2c-16.5,8.54-29.59,23.55-35.71,41.11-1.66,4.77-2.84,9.81-2.52,14.85.42,6.73,3.44,12.99,6.56,18.96,3.19,6.09,6.71,12.27,12.22,16.38,12.21,9.11,30.54,4.74,41.75-5.58,11.33-10.44,17.25-28.31,9.63-41.71-6.01-10.58-19.39-15.82-31.38-13.77-12,2.04-22.32,10.5-28.36,21.07-3.03,5.3-5.26,11.34-9.99,15.2-2.49,2.03-5.51,3.3-8.48,4.54-5.2,2.17-10.67,4.39-16.28,3.83-9.18-.92-16.07-9.05-19.69-17.54-3.62-8.49-5.02-17.83-8.96-26.17-3.59-7.61-10.26-14.65-18.4-15.74"/>
          </g>
        </g>
        <g>
          <path class="cls-3" d="M295.21-33.42c-16.5,8.54-29.59,23.55-35.71,41.11-1.66,4.77-2.84,9.81-2.52,14.85.42,6.73,3.44,12.99,6.56,18.96,3.19,6.09,6.71,12.27,12.22,16.38,12.21,9.11,30.54,4.74,41.75-5.58,11.33-10.44,17.25-28.31,9.63-41.71-6.01-10.58-19.39-15.82-31.38-13.77-12,2.04-22.32,10.5-28.36,21.07-3.03,5.3-5.26,11.34-9.99,15.2-2.49,2.03-5.51,3.3-8.48,4.54-5.2,2.17-10.67,4.39-16.28,3.83-9.18-.92-16.07-9.05-19.69-17.54-3.62-8.49-5.02-17.83-8.96-26.17-3.59-7.61-10.26-14.65-18.4-15.74"/>
          <path class="cls-6" d="M280.42,251.74c.29-.19.58-.37.88-.53"/>
        </g>
        <g>
          <g>
            <circle class="cls-7" cx="101.44" cy="118.73" r="25.22"/>
            <path class="cls-7" d="M104.55,100.16l-2.18-1.14s-1.25-.62-1.66-.52-1.87.92-2.28.82-1.45,0-1.76,0-2.18.84-2.18.84h-1.04s-.42-.21-.73,0-1.76.52-2.08.42-.93.15-1.25.02-1.35.04-1.35.04v.77l-.73,1.14-.52,1.25s-.42,1.14,0,1.35.73,1.25.73,1.25c0,0,.21,1.04,0,1.35s-.91,1.97-.91,1.97c0,0-.44,1.14-.54,1.45s.1.93,0,1.25-.03,1.25-.03,1.25c0,0,.45,1.76.65,2.08s.73,2.08,1.35,2.28,1.04.31,1.04.73-.1,1.56.31,1.76,1.35.52,2.39.42,1.35.15,2.08.02,1.43.6,1.43.6c0,0,1.07,1.14,1.69,1.35s.93.73,1.45.93,1.66.62,1.66.62c0,0,1.35.31,1.97,0l.62-.31v2.28s-.52,1.97-.62,2.28-.21,2.39-.21,2.39c0,0,.42,1.56.83,1.76s1.66.52,1.87.62.62.52.62.83.52,1.04,0,1.35-.93,1.56-1.04,1.87.62,1.56.62,1.56l-1.56,1.97.21,1.66.87,1.08,2.35-1.71s-.1-1.97,0-2.49,1.14-1.04,1.14-1.04c0,0,1.35-.21,1.97-.73s1.14-.31,1.45-1.14.73-1.56,1.14-1.87.73.21,1.66-.42,1.35-1.04,1.56-1.97,1.25-1.14,1.04-2.08.57-1.56.03-2.18-1.48-1.35-1.48-1.35l-2.39-.83-2.39-.73-.73-1.45-.62-.93s-1.45-.21-2.18-.1l-1.45.21c-.73.1-1.76.31-1.76.31,0,0-1.04-.1-1.35-.1s-1.87.21-1.87.21c0,0-.62.21-1.04-.1s-.73-.52-1.25-.93-1.04-.79-1.35-1.23-.62-.43-.83-.85-.31-.62-.62-.83-.42-.31,0-.73.93,0,.93,0c0,0,.42.42,1.04,0s1.04-.62,1.04-.62c-.83-.73-1.45-.62-1.76-.62s-.93-.31-.93-.31c.1-.73.21-.62.73-1.04s.31,0,.93-.62-2.8,1.35.62-.62c3.42-1.97,3.01-1.56,3.53-2.39s.73-1.45.73-1.45c0,0,0-.42.1-.83s.42-.83.42-.83c0,0,.73-.31,1.45-.73s1.35-.83,1.14-1.14-.21-.52-.62-1.04-.83-.62-1.14-1.25l-.31-.62s.42-1.25,1.04-1.66,1.56-.42,1.45-.83.52-.73-.1-1.04-1.04-.93-1.04-.93Z"/>
            <path class="cls-7" d="M117.86,99.6l-1.04,1.81-1.06,1.35,1.05.42h1.05l.6.73s.21,1.97,0,2.39-.42,1.87-.42,1.87c0,0-.54.93.51.93s.22-.1,1.78,0,2.08.93,2.08.93v1.56c0,.73-.1,1.04,0,1.87s-.42,1.45,0,1.87.31,1.45.73,1.45.62.42,1.04.42h.83l1.66.83"/>
          </g>
          <g>
            <circle class="cls-7" cx="221.44" cy="269.72" r="25.22"/>
            <path class="cls-7" d="M224.56,251.14l-2.18-1.14s-1.25-.62-1.66-.52-1.87.92-2.28.82-1.45,0-1.76,0-2.18.84-2.18.84h-1.04s-.42-.21-.73,0-1.76.52-2.08.42-.93.15-1.25.02-1.35.04-1.35.04v.77l-.73,1.14-.52,1.25s-.42,1.14,0,1.35.73,1.25.73,1.25c0,0,.21,1.04,0,1.35s-.91,1.97-.91,1.97c0,0-.44,1.14-.54,1.45s.1.93,0,1.25-.03,1.25-.03,1.25c0,0,.45,1.76.65,2.08s.73,2.08,1.35,2.28,1.04.31,1.04.73-.1,1.56.31,1.76,1.35.52,2.39.42,1.35.15,2.08.02,1.43.6,1.43.6c0,0,1.07,1.14,1.69,1.35s.93.73,1.45.93,1.66.62,1.66.62c0,0,1.35.31,1.97,0l.62-.31v2.28s-.52,1.97-.62,2.28-.21,2.39-.21,2.39c0,0,.42,1.56.83,1.76s1.66.52,1.87.62.62.52.62.83.52,1.04,0,1.35-.93,1.56-1.04,1.87.62,1.56.62,1.56l-1.56,1.97.21,1.66.87,1.08,2.35-1.71s-.1-1.97,0-2.49,1.14-1.04,1.14-1.04c0,0,1.35-.21,1.97-.73s1.14-.31,1.45-1.14.73-1.56,1.14-1.87.73.21,1.66-.42,1.35-1.04,1.56-1.97,1.25-1.14,1.04-2.08.57-1.56.03-2.18-1.48-1.35-1.48-1.35l-2.39-.83-2.39-.73-.73-1.45-.62-.93s-1.45-.21-2.18-.1l-1.45.21c-.73.1-1.76.31-1.76.31,0,0-1.04-.1-1.35-.1s-1.87.21-1.87.21c0,0-.62.21-1.04-.1s-.73-.52-1.25-.93-1.04-.79-1.35-1.23-.62-.43-.83-.85-.31-.62-.62-.83-.42-.31,0-.73.93,0,.93,0c0,0,.42.42,1.04,0s1.04-.62,1.04-.62c-.83-.73-1.45-.62-1.76-.62s-.93-.31-.93-.31c.1-.73.21-.62.73-1.04s.31,0,.93-.62-2.8,1.35.62-.62,3.01-1.56,3.53-2.39.73-1.45.73-1.45c0,0,0-.42.1-.83s.42-.83.42-.83c0,0,.73-.31,1.45-.73s1.35-.83,1.14-1.14-.21-.52-.62-1.04-.83-.62-1.14-1.25l-.31-.62s.42-1.25,1.04-1.66,1.56-.42,1.45-.83.52-.73-.1-1.04-1.04-.93-1.04-.93Z"/>
            <path class="cls-7" d="M237.86,250.58l-1.04,1.81-1.06,1.35,1.05.42h1.05l.6.73s.21,1.97,0,2.39-.42,1.87-.42,1.87c0,0-.54.93.51.93s.22-.1,1.78,0,2.08.93,2.08.93v1.56c0,.73-.1,1.04,0,1.87s-.42,1.45,0,1.87.31,1.45.73,1.45.62.42,1.04.42h.83l1.66.83"/>
          </g>
          <g>
            <circle class="cls-7" cx="265.84" cy="90.58" r="13.39"/>
            <path class="cls-7" d="M267.49,80.72l-1.16-.61s-.66-.33-.88-.28-.99.49-1.21.44-.77,0-.94,0-1.16.44-1.16.44h-.55s-.22-.11-.39,0-.94.28-1.1.22-.5.08-.66.01-.72.02-.72.02v.41l-.39.61-.28.66s-.22.61,0,.72.39.66.39.66c0,0,.11.55,0,.72s-.48,1.05-.48,1.05c0,0-.23.61-.29.77s.06.5,0,.66-.02.66-.02.66c0,0,.24.94.35,1.1s.39,1.1.72,1.21.55.17.55.39-.06.83.17.94.72.28,1.27.22.72.08,1.1.01.76.32.76.32c0,0,.57.61.9.72s.5.39.77.5.88.33.88.33c0,0,.72.17,1.05,0l.33-.17v1.21s-.28,1.05-.33,1.21-.11,1.27-.11,1.27c0,0,.22.83.44.94s.88.28.99.33.33.28.33.44.28.55,0,.72-.5.83-.55.99.33.83.33.83l-.83,1.05.11.88.46.58,1.25-.91s-.06-1.05,0-1.32.61-.55.61-.55c0,0,.72-.11,1.05-.39s.61-.17.77-.61.39-.83.61-.99.39.11.88-.22.72-.55.83-1.05.66-.61.55-1.1.3-.83.01-1.16-.79-.72-.79-.72l-1.27-.44-1.27-.39-.39-.77-.33-.5s-.77-.11-1.16-.06l-.77.11c-.39.06-.94.17-.94.17,0,0-.55-.06-.72-.06s-.99.11-.99.11c0,0-.33.11-.55-.06s-.39-.28-.66-.5-.55-.42-.72-.65-.33-.23-.44-.45-.17-.33-.33-.44-.22-.17,0-.39.5,0,.5,0c0,0,.22.22.55,0s.55-.33.55-.33c-.44-.39-.77-.33-.94-.33s-.5-.17-.5-.17c.06-.39.11-.33.39-.55s.17,0,.5-.33-1.49.72.33-.33,1.6-.83,1.87-1.27.39-.77.39-.77c0,0,0-.22.06-.44s.22-.44.22-.44c0,0,.39-.17.77-.39s.72-.44.61-.61-.11-.28-.33-.55-.44-.33-.61-.66l-.17-.33s.22-.66.55-.88.83-.22.77-.44.28-.39-.06-.55-.55-.5-.55-.5Z"/>
            <path class="cls-7" d="M274.55,80.42l-.55.96-.56.72.56.22h.56l.32.39s.11,1.05,0,1.27-.22.99-.22.99c0,0-.29.5.27.5s.12-.06.94,0,1.1.5,1.1.5v.83c0,.39-.06.55,0,.99s-.22.77,0,.99.17.77.39.77.33.22.55.22h.44l.88.44"/>
          </g>
          <g>
            <g>
              <path class="cls-7" d="M208.34,120.78s-7.89,1.2-8.98,5c-1.09,3.8,4.63,4.27,10.81,2.35,0,0,1.3-3.4-1.83-7.35Z"/>
              <path class="cls-7" d="M208.34,120.78s-.88,4.15,1.83,7.35"/>
              <path class="cls-7" d="M206.67,121.13s-.66,4.4,2.44,7.43"/>
            </g>
            <path class="cls-7" d="M155.14,134.6l.44-.71s.05-.08.06-.12l.49-.99c.21-.43.21-.93-.02-1.36l-4.95-9.43c-.29-.55-.21-1.21.2-1.68h0c.53-.61,1.46-.68,2.08-.16l10.47,8.74c.39.33.93.43,1.42.27l62.88-20.51c2.79-.91,5.78-1.03,8.63-.34l5.78,1.39c1.16.28,1.62,1.68.85,2.59l-3.58,4.26c-1.67,1.99-3.91,3.42-6.41,4.1l-62.53,17.06c-.14.04-.29.06-.43.05l-14.03-.37c-.68-.02-1.26-.49-1.41-1.15l-.12-.51c-.09-.38-.03-.79.18-1.12Z"/>
            <path class="cls-7" d="M159.84,136.58l-14.94,1.39.37-1.22,14.19-2.42s.73.89.38,2.25Z"/>
            <path class="cls-7" d="M237.71,108.52s-2.94,2.12-7.14,2.95l1.4,1.49s6.24-.99,9.32-3.58l-3.58-.86Z"/>
            <polygon class="cls-7" points="228.17 111.88 196.81 122.14 176.31 128.24 177.93 129.27 229.86 113.31 228.17 111.88"/>
            <path class="cls-7" d="M198.59,123.12s-36.44,5.35-39.88,5.36c-3.44,0-23.48-.5-25.65-.55s-2.62,1.62-2.62,1.62l28.75,1.74,17.63-.26s16.77-1.71,17.99-2.2,7.17-6.2,3.78-5.71Z"/>
            <g>
              <path class="cls-7" d="M193.78,124.52s-7.89,1.2-8.98,5,4.63,4.27,10.81,2.35c0,0,1.3-3.4-1.83-7.35Z"/>
              <path class="cls-7" d="M193.78,124.52s-.88,4.15,1.83,7.35"/>
              <path class="cls-7" d="M192.11,124.87s-.66,4.4,2.44,7.43"/>
            </g>
          </g>
          <g>
            <g>
              <path class="cls-9" d="M167.16,198.45l1.56,10.39c.27,1.83,1.98,3.09,3.81,2.82l25.98-3.9.61-.58-1.98-13.23-29.98,4.5Z"/>
              <path class="cls-6" d="M167.16,198.45l1.56,10.39c.27,1.83,1.98,3.09,3.81,2.82l25.98-3.9.61-.58-1.98-13.23-29.98,4.5Z"/>
            </g>
            <g>
              <path class="cls-9" d="M199.13,207.18l.87.36,11.04-1.66c1.83-.27,3.09-1.98,2.82-3.81l-1.56-10.39-15.16,2.27,1.98,13.23Z"/>
              <path class="cls-6" d="M199.13,207.18l.87.36,11.04-1.66c1.83-.27,3.09-1.98,2.82-3.81l-1.56-10.39-15.16,2.27,1.98,13.23Z"/>
            </g>
            <g>
              <path class="cls-8" d="M208.34,187.88l-11.24,1.69-.55.48.58,3.9,15.16-2.27-.15-.98c-.27-1.83-1.98-3.09-3.81-2.82Z"/>
              <path class="cls-6" d="M208.34,187.88l-11.24,1.69-.55.48.58,3.9,15.16-2.27-.15-.98c-.27-1.83-1.98-3.09-3.81-2.82Z"/>
            </g>
            <g>
              <path class="cls-8" d="M196.56,190.05l-.59-.31-26.13,3.92c-1.83.27-3.09,1.98-2.82,3.81l.15.98,29.98-4.5-.58-3.9Z"/>
              <path class="cls-6" d="M196.56,190.05l-.59-.31-26.13,3.92c-1.83.27-3.09,1.98-2.82,3.81l.15.98,29.98-4.5-.58-3.9Z"/>
            </g>
            <path class="cls-7" d="M206.49,200.22c0,.05,0,.08,0,.11.08.7.16,1.4.24,2.1,0,.07.03.1.1.12.2.06.4.11.59.18.22.07.38.2.44.43.06.26-.02.43-.32.47-.82.11-1.65.2-2.47.3-.18.02-.24-.02-.28-.19-.02-.09-.05-.19-.06-.28-.02-.15.04-.27.16-.35.21-.14.43-.27.64-.41.02-.02.05-.06.05-.08-.15-.71-.31-1.43-.47-2.15-.22-.02-.43,0-.62.09-.33.13-.65.28-.97.42-.5.22-.99.45-1.48.67-.02.01-.05.02-.07.03-.2.06-.3.02-.38-.17-.06-.15-.1-.31-.14-.47-.03-.13,0-.26.11-.35.09-.08.17-.16.26-.23.87-.69,1.73-1.38,2.6-2.08.03-.03.06-.05.1-.08.19-.15.24-.33.2-.56-.08-.4-.16-.8-.22-1.21-.05-.32-.11-.65-.05-.98.02-.13.05-.26.1-.38.14-.36.5-.41.74-.11.2.27.36.56.42.89.11.57.2,1.13.29,1.7.03.21.12.33.32.41,1.12.48,2.23.96,3.35,1.44.17.07.33.16.45.32.18.24.17.51.08.78-.03.08-.1.13-.19.14-.08,0-.17,0-.25-.02-.77-.14-1.53-.29-2.3-.42-.31-.05-.64-.05-.96-.07Z"/>
            <g>
              <polygon class="cls-8" points="212.15 190.7 167.02 197.47 167.16 198.45 212.3 191.67 212.15 190.7"/>
              <polygon class="cls-6" points="212.15 190.7 167.02 197.47 167.16 198.45 212.3 191.67 212.15 190.7"/>
            </g>
            <g>
              <polygon class="cls-8" points="192.27 197.45 170.15 200.77 170.3 201.74 192.42 198.43 192.27 197.45"/>
              <polygon class="cls-6" points="192.27 197.45 170.15 200.77 170.3 201.74 192.42 198.43 192.27 197.45"/>
            </g>
            <g>
              <polygon class="cls-8" points="194.12 191.42 169.31 195.14 169.45 196.12 194.27 192.4 194.12 191.42"/>
              <polygon class="cls-6" points="194.12 191.42 169.31 195.14 169.45 196.12 194.27 192.4 194.12 191.42"/>
            </g>
            <g>
              <polygon class="cls-8" points="192.57 199.47 170.45 202.79 170.6 203.76 192.72 200.45 192.57 199.47"/>
              <polygon class="cls-6" points="192.57 199.47 170.45 202.79 170.6 203.76 192.72 200.45 192.57 199.47"/>
            </g>
            <g>
              <polygon class="cls-8" points="192.88 201.49 170.76 204.81 170.9 205.78 193.02 202.47 192.88 201.49"/>
              <polygon class="cls-6" points="192.88 201.49 170.76 204.81 170.9 205.78 193.02 202.47 192.88 201.49"/>
            </g>
            <g>
              <polygon class="cls-8" points="193.18 203.51 171.06 206.83 171.21 207.8 193.33 204.48 193.18 203.51"/>
              <polygon class="cls-6" points="193.18 203.51 171.06 206.83 171.21 207.8 193.33 204.48 193.18 203.51"/>
            </g>
            <g>
              <polygon class="cls-8" points="193.48 205.53 171.36 208.84 171.51 209.82 193.63 206.5 193.48 205.53"/>
              <polygon class="cls-6" points="193.48 205.53 171.36 208.84 171.51 209.82 193.63 206.5 193.48 205.53"/>
            </g>
            <polygon class="cls-7" points="197.17 206.11 195.82 206.31 194.44 197.12 195.79 196.92 197.17 206.11"/>
          </g>
          <g>
            <g>
              <path class="cls-9" d="M18.27,198.54l-5.43,9c-.96,1.59-.45,3.64,1.14,4.6l22.5,13.56.84-.06,6.91-11.46-25.96-15.65Z"/>
              <path class="cls-6" d="M18.27,198.54l-5.43,9c-.96,1.59-.45,3.64,1.14,4.6l22.5,13.56.84-.06,6.91-11.46-25.96-15.65Z"/>
            </g>
            <g>
              <path class="cls-9" d="M37.32,225.65l.44.83,9.56,5.76c1.59.96,3.64.45,4.6-1.14l5.43-9-13.13-7.91-6.91,11.46Z"/>
              <path class="cls-6" d="M37.32,225.65l.44.83,9.56,5.76c1.59.96,3.64.45,4.6-1.14l5.43-9-13.13-7.91-6.91,11.46Z"/>
            </g>
            <g>
              <path class="cls-8" d="M56.72,216.66l-9.73-5.87-.73.03-2.03,3.38,13.13,7.91.51-.85c.96-1.59.45-3.64-1.14-4.6Z"/>
              <path class="cls-6" d="M56.72,216.66l-9.73-5.87-.73.03-2.03,3.38,13.13,7.91.51-.85c.96-1.59.45-3.64-1.14-4.6Z"/>
            </g>
            <g>
              <path class="cls-8" d="M46.26,210.82l-.25-.62-22.63-13.64c-1.59-.96-3.64-.45-4.6,1.14l-.51.85,25.96,15.65,2.03-3.38Z"/>
              <path class="cls-6" d="M46.26,210.82l-.25-.62-22.63-13.64c-1.59-.96-3.64-.45-4.6,1.14l-.51.85,25.96,15.65,2.03-3.38Z"/>
            </g>
            <path class="cls-7" d="M47.43,224.98s-.05.07-.06.09c-.39.59-.77,1.18-1.16,1.77-.04.06-.04.1,0,.16.12.17.23.34.34.51.12.19.17.4.06.61-.12.24-.29.32-.54.16-.7-.44-1.4-.89-2.09-1.34-.15-.1-.17-.17-.09-.33.04-.09.08-.18.13-.26.08-.13.2-.19.35-.17.25.03.5.06.75.09.03,0,.08-.01.09-.03.34-.65.67-1.3,1.01-1.96-.15-.15-.33-.27-.53-.33-.34-.11-.68-.2-1.02-.29-.52-.14-1.05-.29-1.57-.43-.03,0-.05-.02-.07-.03-.19-.08-.25-.18-.18-.37.05-.16.12-.31.19-.45.06-.12.17-.19.31-.2.12,0,.23-.01.35-.01,1.11.02,2.22.04,3.33.06.04,0,.08,0,.12,0,.24,0,.4-.1.51-.31.2-.36.39-.72.6-1.07.17-.28.33-.57.59-.79.1-.08.21-.17.32-.23.34-.19.65,0,.64.39-.01.34-.08.66-.25.96-.28.5-.57,1-.86,1.5-.11.18-.11.33-.02.52.56,1.08,1.11,2.17,1.66,3.25.09.17.16.34.14.53-.02.3-.19.5-.43.66-.08.05-.16.04-.23-.02-.07-.05-.13-.11-.18-.18-.5-.6-.99-1.2-1.5-1.79-.21-.24-.46-.44-.7-.67Z"/>
            <g>
              <polygon class="cls-8" points="57.86 221.26 18.78 197.7 18.27 198.54 57.35 222.11 57.86 221.26"/>
              <polygon class="cls-6" points="57.86 221.26 18.78 197.7 18.27 198.54 57.35 222.11 57.86 221.26"/>
            </g>
            <g>
              <polygon class="cls-8" points="38.24 213.79 19.09 202.24 18.58 203.09 37.73 214.63 38.24 213.79"/>
              <polygon class="cls-6" points="38.24 213.79 19.09 202.24 18.58 203.09 37.73 214.63 38.24 213.79"/>
            </g>
            <g>
              <polygon class="cls-8" points="43.51 210.32 22.02 197.37 21.51 198.21 43 211.17 43.51 210.32"/>
              <polygon class="cls-6" points="43.51 210.32 22.02 197.37 21.51 198.21 43 211.17 43.51 210.32"/>
            </g>
            <g>
              <polygon class="cls-8" points="37.19 215.53 18.03 203.99 17.52 204.83 36.68 216.38 37.19 215.53"/>
              <polygon class="cls-6" points="37.19 215.53 18.03 203.99 17.52 204.83 36.68 216.38 37.19 215.53"/>
            </g>
            <g>
              <polygon class="cls-8" points="36.13 217.28 16.98 205.74 16.47 206.58 35.62 218.13 36.13 217.28"/>
              <polygon class="cls-6" points="36.13 217.28 16.98 205.74 16.47 206.58 35.62 218.13 36.13 217.28"/>
            </g>
            <g>
              <polygon class="cls-8" points="35.08 219.03 15.92 207.49 15.41 208.33 34.57 219.88 35.08 219.03"/>
              <polygon class="cls-6" points="35.08 219.03 15.92 207.49 15.41 208.33 34.57 219.88 35.08 219.03"/>
            </g>
            <g>
              <polygon class="cls-8" points="34.03 220.78 14.87 209.23 14.36 210.08 33.51 221.63 34.03 220.78"/>
              <polygon class="cls-6" points="34.03 220.78 14.87 209.23 14.36 210.08 33.51 221.63 34.03 220.78"/>
            </g>
            <polygon class="cls-7" points="36.49 223.58 35.32 222.88 40.12 214.92 41.29 215.62 36.49 223.58"/>
          </g>
          <g>
            <g>
              <path class="cls-9" d="M115.42,67.8l-9.45-28.57,17.92-10.04c.92-.5,1.92-.18,2.22.74l8.36,25.27c.3.91-.2,2.06-1.13,2.56l-17.92,10.04Z"/>
              <path class="cls-6" d="M115.42,67.8l-9.45-28.57,17.92-10.04c.92-.5,1.92-.18,2.22.74l8.36,25.27c.3.91-.2,2.06-1.13,2.56l-17.92,10.04Z"/>
            </g>
            <g>
              <path class="cls-9" d="M115.73,68.93l-9.6-29.74,20.49-6.72c.95-.31,1.96.21,2.27,1.16l8.49,26.31c.31.95-.21,1.96-1.16,2.27l-20.49,6.72Z"/>
              <path class="cls-6" d="M115.73,68.93l-9.6-29.74,20.49-6.72c.95-.31,1.96.21,2.27,1.16l8.49,26.31c.31.95-.21,1.96-1.16,2.27l-20.49,6.72Z"/>
            </g>
            <path class="cls-1" d="M115.6,49.7c-1.07-3.14.61-6.57,3.75-7.64s6.57.61,7.64,3.75-.61,6.57-3.75,7.64-6.57-.61-7.64-3.75ZM123.1,52.72c.2-.72.28-1.52.25-2.37-.38.09-.76.2-1.14.33s-.77.29-1.14.46c.49.68,1.04,1.27,1.64,1.71.1-.03.2-.06.29-.09.03-.01.06-.02.1-.04ZM121.97,49.98c.44-.15.88-.27,1.32-.37-.07-.66-.22-1.34-.42-2.01l-3.1,1.06c.25.66.55,1.29.9,1.86.42-.2.86-.38,1.31-.54ZM123.94,52.33c.92-.53,1.64-1.32,2.09-2.24-.63-.03-1.29.02-1.96.12.04.74,0,1.45-.13,2.12ZM126.32,49.37c.3-.94.35-1.97.08-2.98l-2.84.97c.22.71.37,1.42.45,2.11.79-.12,1.57-.16,2.31-.11ZM126.16,45.7c-.4-.95-1.05-1.73-1.85-2.29-.56.5-1.2.95-1.9,1.34.36.59.67,1.24.92,1.92l2.84-.97ZM121.75,45.09c-.41.19-.83.37-1.27.52s-.91.28-1.37.38c.08.65.21,1.32.42,1.98l3.1-1.06c-.24-.65-.54-1.26-.88-1.82ZM118.39,46.12c-.73.11-1.46.15-2.15.11-.28.91-.31,1.91-.05,2.88l2.65-.9c-.21-.69-.36-1.4-.44-2.09ZM116.42,49.81c.4.94,1.04,1.72,1.83,2.27.52-.45,1.11-.86,1.76-1.22-.36-.6-.68-1.26-.94-1.95l-2.65.9ZM121.76,53.02c-.49-.44-.94-.96-1.35-1.55-.54.3-1.04.63-1.49,1,.87.44,1.85.64,2.85.55ZM120.59,42.52c.51.46.99,1,1.42,1.62.6-.33,1.15-.7,1.64-1.12-.93-.46-1.99-.65-3.06-.51ZM119.58,42.75c-.1.03-.19.07-.29.11-.2.72-.28,1.54-.24,2.39.4-.09.79-.2,1.19-.34s.75-.28,1.11-.44c-.5-.7-1.06-1.3-1.67-1.75-.03.01-.07.02-.1.03ZM116.51,45.51c.59.02,1.2-.02,1.81-.12-.04-.73,0-1.43.12-2.09-.85.55-1.52,1.32-1.93,2.21Z"/>
            <text class="cls-2" transform="translate(119.5 61.69) rotate(-19.93) scale(.73 1)"><tspan class="cls-10" x="0" y="0">P</tspan><tspan class="cls-13" x="1.56" y="0">asspo</tspan><tspan class="cls-11" x="8.95" y="0">r</tspan><tspan class="cls-12" x="10.04" y="0">t</tspan></text>
          </g>
          <g>
            <g>
              <path class="cls-9" d="M231.82,23.9l13.06-27.11,19.86,5.23c1.01.28,1.5,1.21,1.08,2.07l-11.55,23.98c-.42.86-1.58,1.34-2.59,1.06l-19.86-5.23Z"/>
              <path class="cls-6" d="M231.82,23.9l13.06-27.11,19.86,5.23c1.01.28,1.5,1.21,1.08,2.07l-11.55,23.98c-.42.86-1.58,1.34-2.59,1.06l-19.86-5.23Z"/>
            </g>
            <g>
              <path class="cls-9" d="M231.26,24.93l13.77-28.06,19.4,9.41c.89.44,1.26,1.52.82,2.41l-12.18,24.82c-.44.89-1.52,1.26-2.41.82l-19.4-9.41Z"/>
              <path class="cls-6" d="M231.26,24.93l13.77-28.06,19.4,9.41c.89.44,1.26,1.52.82,2.41l-12.18,24.82c-.44.89-1.52,1.26-2.41.82l-19.4-9.41Z"/>
            </g>
            <path class="cls-1" d="M244.52,11.01c1.41-3,5-4.3,8.01-2.89s4.3,5,2.89,8.01c-1.41,3-5,4.3-8.01,2.89s-4.3-5-2.89-8.01ZM247.81,18.39c.64-.38,1.26-.9,1.83-1.53-.33-.2-.68-.39-1.04-.55s-.76-.33-1.14-.46c-.12.83-.13,1.63-.01,2.37.09.05.18.1.27.14.03.01.06.03.09.04ZM248.91,15.64c.42.2.82.42,1.2.65.41-.53.78-1.11,1.09-1.74l-2.97-1.39c-.28.65-.49,1.31-.64,1.96.44.15.88.32,1.31.52ZM248.69,18.69c1.03.26,2.1.19,3.06-.16-.44-.46-.94-.89-1.49-1.27-.49.56-1.02,1.04-1.57,1.43ZM252.46,18.22c.87-.46,1.62-1.17,2.12-2.09l-2.71-1.27c-.33.66-.72,1.27-1.15,1.83.65.46,1.24.97,1.74,1.53ZM254.89,15.47c.37-.96.45-1.98.26-2.93-.75-.03-1.52-.15-2.3-.36-.16.67-.38,1.35-.67,2.02l2.71,1.27ZM252.15,11.97c-.43-.15-.85-.31-1.27-.51s-.85-.43-1.25-.68c-.4.52-.76,1.1-1.08,1.72l2.97,1.39c.27-.63.48-1.28.63-1.92ZM249.02,10.37c-.61-.43-1.15-.91-1.62-1.42-.83.46-1.55,1.16-2.04,2.04l2.53,1.19c.33-.65.71-1.26,1.13-1.81ZM245.04,11.65c-.37.95-.44,1.96-.26,2.91.69.04,1.4.15,2.11.34.16-.69.39-1.38.68-2.06l-2.53-1.19ZM246.65,17.68c-.05-.65-.01-1.35.1-2.05-.6-.16-1.19-.27-1.77-.32.32.92.89,1.74,1.67,2.37ZM253.1,9.31c.05.68.02,1.41-.11,2.16.66.18,1.32.3,1.95.34-.35-.98-.98-1.86-1.85-2.49ZM252.22,8.78c-.09-.04-.19-.08-.28-.12-.65.38-1.27.91-1.84,1.55.35.21.71.41,1.09.59s.73.32,1.1.45c.13-.85.14-1.67.02-2.42-.03-.02-.06-.03-.09-.05ZM248.09,8.63c.41.42.88.81,1.39,1.17.48-.55,1-1.03,1.54-1.42-.99-.2-2.01-.11-2.92.24Z"/>
            <text class="cls-2" transform="translate(238.94 22.42) rotate(24.1) scale(.73 1)"><tspan class="cls-10" x="0" y="0">P</tspan><tspan class="cls-13" x="1.56" y="0">asspo</tspan><tspan class="cls-11" x="8.95" y="0">r</tspan><tspan class="cls-12" x="10.04" y="0">t</tspan></text>
          </g>
          <g>
            <g>
              <path class="cls-9" d="M247.46,181.3l-9.45-28.57,17.92-10.04c.92-.5,1.92-.18,2.22.74l8.36,25.27c.3.91-.2,2.06-1.13,2.56l-17.92,10.04Z"/>
              <path class="cls-6" d="M247.46,181.3l-9.45-28.57,17.92-10.04c.92-.5,1.92-.18,2.22.74l8.36,25.27c.3.91-.2,2.06-1.13,2.56l-17.92,10.04Z"/>
            </g>
            <g>
              <path class="cls-9" d="M247.77,182.43l-9.6-29.74,20.49-6.72c.95-.31,1.96.21,2.27,1.16l8.49,26.31c.31.95-.21,1.96-1.16,2.27l-20.49,6.72Z"/>
              <path class="cls-6" d="M247.77,182.43l-9.6-29.74,20.49-6.72c.95-.31,1.96.21,2.27,1.16l8.49,26.31c.31.95-.21,1.96-1.16,2.27l-20.49,6.72Z"/>
            </g>
            <path class="cls-1" d="M247.63,163.2c-1.07-3.14.61-6.57,3.75-7.64s6.57.61,7.64,3.75-.61,6.57-3.75,7.64c-3.14,1.07-6.57-.61-7.64-3.75ZM255.13,166.22c.2-.72.28-1.52.25-2.37-.38.09-.76.2-1.14.33s-.77.29-1.14.46c.49.68,1.04,1.27,1.64,1.71.1-.03.2-.06.29-.09.03-.01.06-.02.1-.04ZM254.01,163.48c.44-.15.88-.27,1.32-.37-.07-.66-.22-1.34-.42-2.01l-3.1,1.06c.25.66.55,1.29.9,1.86.42-.2.86-.38,1.31-.54ZM255.97,165.83c.92-.53,1.64-1.32,2.09-2.24-.63-.03-1.29.02-1.96.12.04.74,0,1.45-.13,2.12ZM258.35,162.87c.3-.94.35-1.97.08-2.98l-2.84.97c.22.71.37,1.42.45,2.11.79-.12,1.57-.16,2.31-.11ZM258.19,159.2c-.4-.95-1.05-1.73-1.85-2.29-.56.5-1.2.95-1.9,1.34.36.59.67,1.24.92,1.92l2.84-.97ZM253.78,158.59c-.41.19-.83.37-1.27.52s-.91.28-1.37.38c.08.65.21,1.32.42,1.98l3.1-1.06c-.24-.65-.54-1.26-.88-1.82ZM250.42,159.62c-.73.11-1.46.15-2.15.11-.28.91-.31,1.91-.05,2.88l2.65-.9c-.21-.69-.36-1.4-.44-2.09ZM248.46,163.31c.4.94,1.04,1.72,1.83,2.27.52-.45,1.11-.86,1.76-1.22-.36-.6-.68-1.26-.94-1.95l-2.65.9ZM253.8,166.52c-.49-.44-.94-.96-1.35-1.55-.54.3-1.04.63-1.49,1,.87.44,1.85.64,2.85.55ZM252.62,156.02c.51.46.99,1,1.42,1.62.6-.33,1.15-.7,1.64-1.12-.93-.46-1.99-.65-3.06-.51ZM251.62,156.25c-.1.03-.19.07-.29.11-.2.72-.28,1.54-.24,2.39.4-.09.79-.2,1.19-.34s.75-.28,1.11-.44c-.5-.7-1.06-1.3-1.67-1.75-.03.01-.07.02-.1.03ZM248.54,159.01c.59.02,1.2-.02,1.81-.12-.04-.73,0-1.43.12-2.09-.85.55-1.52,1.32-1.93,2.21Z"/>
            <text class="cls-2" transform="translate(251.53 175.19) rotate(-19.93) scale(.73 1)"><tspan class="cls-10" x="0" y="0">P</tspan><tspan class="cls-13" x="1.56" y="0">asspo</tspan><tspan class="cls-11" x="8.95" y="0">r</tspan><tspan class="cls-12" x="10.04" y="0">t</tspan></text>
          </g>
          <g>
            <path class="cls-7" d="M166.97,79.05s4.41-7.27.09-10.13-11.05,3.44-11.91,9.62,1.33,5.2-.04,10.01c-1.37,4.81-2.13,9.3,1.55,10.22,3.67.92,7.05.79,6.83-6.12-.22-6.91,3.02-12.74,3.48-13.6Z"/>
            <path class="cls-7" d="M164.65,73.43c.12-.14.34-.05.32.13-.09.75-.08,1.88.58,2.72,1.29,1.65,2.7,4.61,1.68,8.42-1.01,3.81-4.33,5.97-4.93,4.92s1.14-2.2,2.32-3.65,2.55-5.6-1.04-8.97c0,0-3.83,1.39-4.86,3.36s-1.93,5.6-.86,6.83-1.25,3.07-1.76-1.61,1.81-7.01,6.5-10.36c0,0,1.18-.75,2.07-1.81Z"/>
            <path class="cls-7" d="M170.8,85.3s1.98-8.27,7.06-7.27,5.44,10.21,1.7,15.21c-3.74,5-4.6,2.76-7,7.15-2.41,4.39-5.02,8.11-8.29,6.18-3.26-1.93-5.57-4.4-.56-9.16s6.81-11.18,7.08-12.12Z"/>
            <path class="cls-7" d="M176.4,82.94c.02-.18-.21-.27-.32-.13-.46.59-1.27,1.39-2.32,1.53-2.08.27-5.16,1.38-7.12,4.8-1.95,3.42-1.12,7.29.05,6.97s.74-2.36.92-4.22,2.12-5.78,7.05-5.65c0,0,1.74,3.68,1.09,5.81s-2.57,5.34-4.19,5.47-1.27,3.07,2.39.1c3.65-2.97,3.63-6.26,2.66-11.93,0,0-.32-1.36-.2-2.74Z"/>
          </g>
          <g>
            <path class="cls-7" d="M124.35,240.45s4.41-7.27.09-10.13-11.05,3.44-11.91,9.62c-.86,6.19,1.33,5.2-.04,10.01s-2.13,9.3,1.55,10.22c3.67.92,7.05.79,6.83-6.12s3.02-12.74,3.48-13.6Z"/>
            <path class="cls-7" d="M122.03,234.83c.12-.14.34-.05.32.13-.09.75-.08,1.88.58,2.72,1.29,1.65,2.7,4.61,1.68,8.42-1.01,3.81-4.33,5.97-4.93,4.92s1.14-2.2,2.32-3.65,2.55-5.6-1.04-8.97c0,0-3.83,1.39-4.86,3.36s-1.93,5.6-.86,6.83-1.25,3.07-1.76-1.61,1.81-7.01,6.5-10.36c0,0,1.18-.75,2.07-1.81Z"/>
            <path class="cls-7" d="M128.18,246.71s1.98-8.27,7.06-7.27,5.44,10.21,1.7,15.21c-3.74,5-4.6,2.76-7,7.15s-5.02,8.11-8.29,6.18c-3.26-1.93-5.57-4.4-.56-9.16s6.81-11.18,7.08-12.12Z"/>
            <path class="cls-7" d="M133.78,244.34c.02-.18-.21-.27-.32-.13-.46.59-1.27,1.39-2.32,1.53-2.08.27-5.16,1.38-7.12,4.8-1.95,3.42-1.12,7.29.05,6.97s.74-2.36.92-4.22,2.12-5.78,7.05-5.65c0,0,1.74,3.68,1.09,5.81s-2.57,5.34-4.19,5.47-1.27,3.07,2.39.1c3.65-2.97,3.63-6.26,2.66-11.93,0,0-.32-1.36-.2-2.74Z"/>
          </g>
          <g>
            <path class="cls-7" d="M46.28,160.23s4.41-7.27.09-10.13c-4.32-2.86-11.05,3.44-11.91,9.62s1.33,5.2-.04,10.01-2.13,9.3,1.55,10.22c3.67.92,7.05.79,6.83-6.12s3.02-12.74,3.48-13.6Z"/>
            <path class="cls-7" d="M43.96,154.62c.12-.14.34-.05.32.13-.09.75-.08,1.88.58,2.72,1.29,1.65,2.7,4.61,1.68,8.42-1.01,3.81-4.33,5.97-4.93,4.92s1.14-2.2,2.32-3.65,2.55-5.6-1.04-8.97c0,0-3.83,1.39-4.86,3.36s-1.93,5.6-.86,6.83-1.25,3.07-1.76-1.61,1.81-7.01,6.5-10.36c0,0,1.18-.75,2.07-1.81Z"/>
            <path class="cls-7" d="M50.12,166.49s1.98-8.27,7.06-7.27,5.44,10.21,1.7,15.21c-3.74,5-4.6,2.76-7,7.15s-5.02,8.11-8.29,6.18c-3.26-1.93-5.57-4.4-.56-9.16,5.01-4.76,6.81-11.18,7.08-12.12Z"/>
            <path class="cls-7" d="M55.71,164.12c.02-.18-.21-.27-.32-.13-.46.59-1.27,1.39-2.32,1.53-2.08.27-5.16,1.38-7.12,4.8-1.95,3.42-1.12,7.29.05,6.97s.74-2.36.92-4.22,2.12-5.78,7.05-5.65c0,0,1.74,3.68,1.09,5.81-.65,2.12-2.57,5.34-4.19,5.47s-1.27,3.07,2.39.1c3.65-2.97,3.63-6.26,2.66-11.93,0,0-.32-1.36-.2-2.74Z"/>
          </g>
          <g>
            <path class="cls-7" d="M75.17,12.86s4.41-7.27.09-10.13-11.05,3.44-11.91,9.62,1.33,5.2-.04,10.01c-1.37,4.81-2.13,9.3,1.55,10.22,3.67.92,7.05.79,6.83-6.12-.22-6.91,3.02-12.74,3.48-13.6Z"/>
            <path class="cls-7" d="M72.85,7.24c.12-.14.34-.05.32.13-.09.75-.08,1.88.58,2.72,1.29,1.65,2.7,4.61,1.68,8.42-1.01,3.81-4.33,5.97-4.93,4.92s1.14-2.2,2.32-3.65,2.55-5.6-1.04-8.97c0,0-3.83,1.39-4.86,3.36s-1.93,5.6-.86,6.83-1.25,3.07-1.76-1.61,1.81-7.01,6.5-10.36c0,0,1.18-.75,2.07-1.81Z"/>
            <path class="cls-7" d="M79,19.12s1.98-8.27,7.06-7.27,5.44,10.21,1.7,15.21c-3.74,5-4.6,2.76-7,7.15s-5.02,8.11-8.29,6.18c-3.26-1.93-5.57-4.4-.56-9.16s6.81-11.18,7.08-12.12Z"/>
            <path class="cls-7" d="M84.6,16.75c.02-.18-.21-.27-.32-.13-.46.59-1.27,1.39-2.32,1.53-2.08.27-5.16,1.38-7.12,4.8-1.95,3.42-1.12,7.29.05,6.97s.74-2.36.92-4.22,2.12-5.78,7.05-5.65c0,0,1.74,3.68,1.09,5.81s-2.57,5.34-4.19,5.47-1.27,3.07,2.39.1c3.65-2.97,3.63-6.26,2.66-11.93,0,0-.32-1.36-.2-2.74Z"/>
          </g>
          <g>
            <path class="cls-7" d="M126.04,151.77l-3.95-1.11s-1.02,0-2.6.13-6.44,1.67-6.44,1.67c0,0-1.56.69-1.89,1.87s-3.84,13.68-3.84,13.68c0,0-1.19,2.4,1.14,3.22,0,0,21.2,9.54,28.44,9.87l4.14-1.56c.56-.18,1.07-.5,1.47-.94.52-.58,1.16-1.52,1.42-2.78.46-2.26,3.37-14.12,3.37-14.12,0,0,.48-2.32-1.02-3.66s-20.24-6.28-20.24-6.28Z"/>
            <path class="cls-7" d="M113.05,152.46s26.64,6.56,28.76,8.59c1.92,1.84-2.33,15.47-2.33,15.47,0,0-1.42,4.11-2.7,4.57"/>
            <ellipse class="cls-7" cx="120.94" cy="168.83" rx="6.77" ry="7.48" transform="translate(-13.71 10.72) rotate(-4.8)"/>
            <ellipse class="cls-7" cx="118.99" cy="168.77" rx="6.58" ry="7.27" transform="translate(-13.71 10.55) rotate(-4.8)"/>
            <ellipse class="cls-7" cx="118.5" cy="168.63" rx="4.6" ry="5.08" transform="translate(-13.7 10.51) rotate(-4.8)"/>
            <path class="cls-7" d="M119.87,163.76s-3.93.52-4.67,3.94c-.74,3.42,1.24,5.63,1.94,5.79"/>
            <path class="cls-7" d="M137.36,164.34l-3.98-1.12c-.34-.1-.54-.45-.44-.79l.41-1.45c.1-.34.45-.54.79-.44l3.98,1.12c.34.1.54.45.44.79l-.41,1.45c-.1.34-.45.54-.79.44Z"/>
            <path class="cls-7" d="M117.44,157.29l-3.98-1.12c-.34-.1-.54-.45-.44-.79l.03-.11c.1-.34.45-.54.79-.44l3.98,1.12c.34.1.54.45.44.79l-.03.11c-.1.34-.45.54-.79.44Z"/>
            <ellipse class="cls-7" cx="139.93" cy="157.39" rx="2.46" ry="1.09" transform="translate(-37.37 43.73) rotate(-15.7)"/>
            <g>
              <path class="cls-7" d="M125.26,154.02l.63-2.25c.03-.12.11-.21.23-.26.6-.26,2.63-1.12,4.54-1.41.06,0,.12,0,.18.01l3.36.95c.08.02.15.07.2.13l1.53,1.86s.02.03.03.04c.11.18.79,1.32.78,2.23,0,.15-.08.29-.21.36l-2.15,1.21c-.09.05-.21.07-.31.04l-8.53-2.4c-.22-.06-.34-.29-.28-.5Z"/>
              <path class="cls-7" d="M126.11,151.51l7.67,2.15s-.15.29,1-.16l1.15-.45"/>
              <line class="cls-7" x1="133.78" y1="153.67" x2="134.07" y2="156.92"/>
            </g>
          </g>
          <g>
            <path class="cls-7" d="M166.48,255.37l3.74-1.8s1.02-.18,2.6-.33,6.69.51,6.69.51c0,0,1.67.4,2.2,1.51.53,1.11,6.15,12.81,6.15,12.81,0,0,1.59,2.15-.59,3.38,0,0-19.46,13.17-26.61,14.78l-4.38-.8c-.59-.08-1.15-.3-1.62-.67-.62-.48-1.41-1.29-1.88-2.49-.85-2.14-5.75-13.33-5.75-13.33,0,0-.87-2.2.39-3.79s19.06-9.78,19.06-9.78Z"/>
            <path class="cls-7" d="M179.51,253.75s-25.38,11.2-27.14,13.57c-1.6,2.16,4.95,14.85,4.95,14.85,0,0,2.11,3.8,3.46,4.03"/>
            <ellipse class="cls-7" cx="174.45" cy="271.29" rx="7.48" ry="6.84" transform="translate(-129.99 377.82) rotate(-76.54)"/>
            <ellipse class="cls-7" cx="176.37" cy="270.88" rx="7.27" ry="6.65" transform="translate(-128.11 379.38) rotate(-76.54)"/>
            <ellipse class="cls-7" cx="176.84" cy="270.65" rx="5.08" ry="4.65" transform="translate(-127.53 379.66) rotate(-76.54)"/>
            <path class="cls-7" d="M174.66,266.1s4-.19,5.32,3.06-.27,5.77-.94,6.06"/>
            <path class="cls-7" d="M157.35,269.77l3.78-1.81c.32-.15.45-.54.3-.86l-.65-1.36c-.15-.32-.54-.45-.86-.3l-3.78,1.81c-.32.15-.45.54-.3.86l.65,1.36c.15.32.54.45.86.3Z"/>
            <path class="cls-7" d="M175.96,259.29l3.78-1.81c.32-.15.45-.54.3-.86l-.05-.1c-.15-.32-.54-.45-.86-.3l-3.78,1.81c-.32.15-.45.54-.3.86l.05.1c.15.32.54.45.86.3Z"/>
            <ellipse class="cls-7" cx="153.62" cy="263.37" rx="1.09" ry="2.49" transform="translate(-150.29 287.86) rotate(-64.35)"/>
            <g>
              <path class="cls-7" d="M167.64,257.44l-1.01-2.11c-.05-.11-.15-.19-.27-.22-.64-.15-2.81-.63-4.75-.59-.06,0-.12.02-.17.04l-3.18,1.53c-.08.04-.14.09-.18.17l-1.21,2.11s-.02.03-.02.05c-.08.19-.56,1.45-.4,2.33.03.15.13.27.27.32l2.35.81c.1.04.22.03.31-.02l8.08-3.88c.2-.1.29-.34.19-.54Z"/>
              <path class="cls-7" d="M166.36,255.12l-7.26,3.48s.2.26-1.02.02l-1.22-.24"/>
              <line class="cls-7" x1="159.1" y1="258.61" x2="159.37" y2="261.87"/>
            </g>
          </g>
          <g>
            <path class="cls-7" d="M212.44,63.05l-3.19,2.58s-.59.84-1.4,2.19-2.36,6.22-2.36,6.22c0,0-.34,1.67.43,2.62s8.93,11.05,8.93,11.05c0,0,1.27,2.35,3.29.93,0,0,20.05-11.77,24.51-17.48l1.12-4.28c.18-.56.21-1.16.08-1.74-.18-.76-.57-1.83-1.44-2.76-1.57-1.69-9.56-10.92-9.56-10.92,0,0-1.61-1.73-3.58-1.29s-16.83,12.88-16.83,12.88Z"/>
            <path class="cls-7" d="M205.49,74.04s20.77-17.93,23.65-18.48c2.61-.5,11.27,10.86,11.27,10.86,0,0,2.53,3.54,2.17,4.84"/>
            <ellipse class="cls-7" cx="223.41" cy="77.08" rx="7.48" ry="6.77" transform="translate(2.97 162.28) rotate(-40.17)"/>
            <ellipse class="cls-7" cx="222.23" cy="78.63" rx="7.27" ry="6.58" transform="translate(1.69 161.88) rotate(-40.17)"/>
            <ellipse class="cls-7" cx="221.83" cy="78.96" rx="5.08" ry="4.6" transform="translate(1.38 161.7) rotate(-40.17)"/>
            <path class="cls-7" d="M218.65,75.02s-1.85,3.51.51,6.09c2.36,2.58,5.3,2.25,5.85,1.77"/>
            <path class="cls-7" d="M229.25,61.09l-3.22,2.6c-.28.22-.68.18-.9-.1l-.95-1.17c-.22-.28-.18-.68.1-.9l3.22-2.6c.28-.22.68-.18.9.1l.95,1.17c.22.28.18.68-.1.9Z"/>
            <path class="cls-7" d="M211.97,73.26l-3.22,2.6c-.28.22-.68.18-.9-.1l-.07-.09c-.22-.28-.18-.68.1-.9l3.22-2.6c.28-.22.68-.18.9.1l.07.09c.22.28.18.68-.1.9Z"/>
            <ellipse class="cls-7" cx="225.06" cy="54.97" rx="1.09" ry="2.46" transform="translate(40.86 195.49) rotate(-51.06)"/>
            <g>
              <path class="cls-7" d="M213.82,64.99l-1.47-1.82c-.08-.09-.11-.22-.08-.33.13-.64.61-2.79,1.47-4.52.03-.05.06-.1.11-.14l2.72-2.19c.06-.05.14-.08.23-.09l2.41-.17s.04,0,.05,0c.21.01,1.54.12,2.27.65.12.09.19.23.17.38l-.26,2.45c-.01.11-.06.21-.15.27l-6.89,5.57c-.17.14-.43.11-.57-.06Z"/>
              <path class="cls-7" d="M212.27,62.84l6.19-5s.15.29.44-.91l.3-1.2"/>
              <line class="cls-7" x1="218.47" y1="57.84" x2="221.29" y2="59.48"/>
            </g>
          </g>
          <g>
            <path class="cls-7" d="M82.14,210.44s-.82,23.85,7.42,43.24c0,0,4.65,1.43,7.61-2.26,0,0-8.37-19.25-10.44-24.41s-4.58-16.57-4.58-16.57Z"/>
            <path class="cls-7" d="M82.41,209.18s2.51-4.11,4.44-6.14l-2.98-.76,4.89-1.88-3.79.04,4.42-3.2,1.57-6.98s-12.01,4.95-8.55,18.92Z"/>
            <path class="cls-7" d="M82.41,209.18s4.81-.24,7.58.22l-1.05-2.89,4.31,2.99-2.17-3.12,5.14,1.85,6.65-2.63s-10.85-7.14-20.46,3.57Z"/>
            <path class="cls-7" d="M82.06,209.59s-4.2,3.27-6.26,5.64l-.85-3.12-1.84,5.55-.04-4.11-3.22,5.21-7.19,2.64s4.85-13.65,19.39-11.81Z"/>
            <path class="cls-7" d="M82.06,209.59s-4.88-2.12-7.95-2.79l2.33-2.24-5.75,1.05,3.59-2.01-6.12-.33-5.76-5.04s14.31-2.28,19.65,11.36Z"/>
            <path class="cls-7" d="M82.22,209.54s3.05,3.73,4.32,6.23l1.7-2.56.15,5.24,1.22-3.59,1.56,5.23,6.06,3.79s-.69-12.97-15.02-14.34Z"/>
          </g>
          <g>
            <path class="cls-7" d="M258.85,221.07s-.82,23.85,7.42,43.24c0,0,4.65,1.43,7.61-2.26,0,0-8.37-19.25-10.44-24.41s-4.58-16.57-4.58-16.57Z"/>
            <path class="cls-7" d="M259.12,219.8s2.51-4.11,4.44-6.14l-2.98-.76,4.89-1.88-3.79.04,4.42-3.2,1.57-6.98s-12.01,4.95-8.55,18.92Z"/>
            <path class="cls-7" d="M259.12,219.8s4.81-.24,7.58.22l-1.05-2.89,4.31,2.99-2.17-3.12,5.14,1.85,6.65-2.63s-10.85-7.14-20.46,3.57Z"/>
            <path class="cls-7" d="M258.77,220.21s-4.2,3.27-6.26,5.64l-.85-3.12-1.84,5.55-.04-4.11-3.22,5.21-7.19,2.64s4.85-13.65,19.39-11.81Z"/>
            <path class="cls-7" d="M258.77,220.21s-4.88-2.12-7.95-2.79l2.33-2.24-5.75,1.05,3.59-2.01-6.12-.33-5.76-5.04s14.31-2.28,19.65,11.36Z"/>
            <path class="cls-7" d="M258.93,220.16s3.05,3.73,4.32,6.23l1.7-2.56.15,5.24,1.22-3.59,1.56,5.23,6.06,3.79s-.69-12.97-15.02-14.34Z"/>
          </g>
          <g>
            <path class="cls-7" d="M174.36,14.67s-.82,23.85,7.42,43.24c0,0,4.65,1.43,7.61-2.26,0,0-8.37-19.25-10.44-24.41s-4.58-16.57-4.58-16.57Z"/>
            <path class="cls-7" d="M174.63,13.41s2.51-4.11,4.44-6.14l-2.98-.76,4.89-1.88-3.79.04,4.42-3.2,1.57-6.98s-12.01,4.95-8.55,18.92Z"/>
            <path class="cls-7" d="M174.63,13.41s4.81-.24,7.58.22l-1.05-2.89,4.31,2.99-2.17-3.12,5.14,1.85,6.65-2.63s-10.85-7.14-20.46,3.57Z"/>
            <path class="cls-7" d="M174.28,13.82s-4.2,3.27-6.26,5.64l-.85-3.12-1.84,5.55-.04-4.11-3.22,5.21-7.19,2.64s4.85-13.65,19.39-11.81Z"/>
            <path class="cls-7" d="M174.28,13.82s-4.88-2.12-7.95-2.79l2.33-2.24-5.75,1.05,3.59-2.01-6.12-.33-5.76-5.04s14.31-2.28,19.65,11.36Z"/>
            <path class="cls-7" d="M174.44,13.77s3.05,3.73,4.32,6.23l1.7-2.56.15,5.24,1.22-3.59,1.56,5.23,6.06,3.79s-.69-12.97-15.02-14.34Z"/>
          </g>
          <g>
            <path class="cls-7" d="M36.47,97.93s-14.05,19.3-18.08,39.98c0,0,3.05,3.79,7.57,2.38,0,0,3.85-20.64,5.03-26.07,1.18-5.43,5.49-16.29,5.49-16.29Z"/>
            <path class="cls-7" d="M37.41,97.03s4.38-2,7.12-2.6l-2.05-2.3,5.11,1.18-3.17-2.09,5.46-.18,5.21-4.9s-12.72-2.62-17.68,10.88Z"/>
            <path class="cls-7" d="M37.41,97.03s4.12,2.5,6.15,4.43l.75-2.98,1.89,4.89-.05-3.79,3.22,4.41,6.98,1.55s-4.98-11.99-18.94-8.5Z"/>
            <path class="cls-7" d="M36.89,97.17s-5.31.36-8.34,1.16l1.04-3.06-4.63,3.57,2.27-3.43-5.59,2.52-7.43-1.84s11.67-8.59,22.68,1.08Z"/>
            <path class="cls-7" d="M36.89,97.17s-2.86-4.49-5.02-6.76l3.19-.55-5.35-2.35,4.09.35-4.88-3.7-1.95-7.4s13.13,6.13,9.92,20.42Z"/>
            <path class="cls-7" d="M37.05,97.22s.44,4.8.09,7.58l2.85-1.17-2.81,4.43,3.02-2.29-1.64,5.21,2.9,6.54s6.69-11.13-4.41-20.29Z"/>
          </g>
          <g>
            <path class="cls-6" d="M192.59,138.92c-.37.17-.74.34-1.1.51"/>
            <path class="cls-3" d="M189.32,140.51c-16.5,8.54-29.59,23.55-35.71,41.11-1.66,4.77-2.84,9.81-2.52,14.85.42,6.73,3.44,12.99,6.56,18.96,3.19,6.09,6.71,12.27,12.22,16.38,12.21,9.11,30.54,4.74,41.75-5.58,11.33-10.44,17.25-28.31,9.63-41.71-6.01-10.58-19.39-15.82-31.38-13.77-12,2.04-22.32,10.5-28.36,21.07-3.03,5.3-5.26,11.34-9.99,15.2-2.49,2.03-5.51,3.3-8.48,4.54-5.2,2.17-10.67,4.39-16.28,3.83-9.18-.92-16.07-9.05-19.69-17.54-3.62-8.49-5.02-17.83-8.96-26.17-3.59-7.61-10.26-14.65-18.4-15.74"/>
            <path class="cls-6" d="M78.52,155.82c-.4-.02-.81-.03-1.21-.03"/>
          </g>
          <g>
            <path class="cls-6" d="M18.07-35.01c-.37.17-.74.34-1.1.51"/>
            <path class="cls-3" d="M14.79-33.42C-1.71-24.87-14.8-9.87-20.91,7.69c-1.66,4.77-2.84,9.81-2.52,14.85.42,6.73,3.44,12.99,6.56,18.96,3.19,6.09,6.71,12.27,12.22,16.38,12.21,9.11,30.54,4.74,41.75-5.58,11.33-10.44,17.25-28.31,9.63-41.71C40.71.02,27.34-5.22,15.34-3.18,3.35-1.14-6.98,7.33-13.01,17.89c-3.03,5.3-5.26,11.34-9.99,15.2-2.49,2.03-5.51,3.3-8.48,4.54-5.2,2.17-10.67,4.39-16.28,3.83-9.18-.92-16.07-9.05-19.69-17.54-3.62-8.49-5.02-17.83-8.96-26.17-3.59-7.61-10.26-14.65-18.4-15.74"/>
            <path class="cls-6" d="M-96.01-18.1c-.4-.02-.81-.03-1.21-.03"/>
          </g>
          <g>
            <path class="cls-6" d="M63.27,76.01c.29-.19.58-.37.88-.53"/>
            <path class="cls-5" d="M65.97,74.56c2.95-1.31,6.19-1.99,9.38-2.58,9.79-1.8,20-1.92,29.24,1.8,22.61,9.12,18.19,26.97,30.97,37.01,7.58,5.96,18.11,7.92,27.36,5.23"/>
            <path class="cls-6" d="M163.89,115.72c.33-.11.65-.22.98-.34"/>
          </g>
          <g>
            <path class="cls-6" d="M0,251.74c.29-.19.58-.37.88-.53"/>
            <path class="cls-5" d="M2.7,250.29c2.95-1.31,6.19-1.99,9.38-2.58,9.79-1.8,20-1.92,29.24,1.8,22.61,9.12,18.19,26.97,30.97,37.01,7.58,5.96,18.11,7.92,27.36,5.23"/>
            <path class="cls-6" d="M100.62,291.45c.33-.11.65-.22.98-.34"/>
          </g>
        </g>
        <path class="cls-7" d="M-21.3,219.8s4.81-.24,7.58.22l-1.05-2.89,4.31,2.99-2.17-3.12,5.14,1.85,6.65-2.63s-10.85-7.14-20.46,3.57Z"/>
      </g>
    </pattern>
  </defs>
  <g id="PATTERN">
    <rect class="cls-14" width="499.9" height="500"/>
  </g>
</svg>