<?xml version="1.0" encoding="UTF-8"?>
<svg id="Layer_2" data-name="Layer 2" xmlns="http://www.w3.org/2000/svg" viewBox="0 0 272.26 260.43">
  <defs>
    <style>
      .cls-1 {
        fill: #fff;
        stroke-width: 0px;
      }
    </style>
  </defs>
  <path class="cls-1" d="m135.89,171.06c23.41,0,42.45-18.99,42.45-42.34s-19.04-42.33-42.45-42.33-42.45,18.99-42.45,42.33,19.04,42.34,42.45,42.34Zm0-73.12c17.01,0,30.85,13.81,30.85,30.78s-13.84,30.79-30.85,30.79-30.85-13.81-30.85-30.79,13.84-30.78,30.85-30.78Z"/>
  <path class="cls-1" d="m100.29,44.9c-15.63.71-26.44,4.84-35.03,13.39-8.57,8.55-12.7,19.32-13.42,34.93-.03.73-3.12,73.34,3.89,91.34,4.36,11.2,12.95,19.76,24.18,24.11,5.95,2.31,12.23,3.51,20.38,3.88,74.75,3.38,104.09,1.84,115.75-27.99,2.33-5.98,3.52-12.25,3.88-20.33,3.45-75.71-.32-92.86-13.42-105.94-8.53-8.51-18.71-14.47-65.57-14.47-11.26,0-24.65.34-40.64,1.08h0Zm70.66,11.54c8.43.38,19.16,1.87,27.35,10.01,9.44,9.42,13.51,22.08,10.04,97.27-.39,8.69-1.87,13.47-3.11,16.67-4.48,11.48-12.04,17.02-26.94,19.76-8.38,1.54-19.36,2.15-33.08,2.15-12.49,0-27.25-.51-44.39-1.3-8.7-.39-13.5-1.86-16.7-3.1-8.18-3.18-14.42-9.4-17.57-17.52-5.84-14.95-3.14-85.94-3.11-86.64.38-8.41,1.87-19.12,10.04-27.29,9.4-9.37,22.08-13.42,97.49-10.01Z"/>
  <path class="cls-1" d="m182.09,91c4.63,0,8.4-3.75,8.4-8.36s-3.77-8.36-8.4-8.36-8.39,3.75-8.39,8.36,3.76,8.36,8.39,8.36Z"/>
</svg>